<svg width="40" height="40" viewBox="0 0 80 80" fill="none" xmlns="http://www.w3.org/2000/svg">
<g clip-path="url(#clip0_66_374)">
<path d="M40 65.8097C54.188 65.8097 65.9403 54.0826 65.9403 39.8694C65.9403 25.6814 54.188 13.9291 39.9749 13.9291C25.7868 13.9291 14.0597 25.6814 14.0597 39.8694C14.0597 54.0826 25.8119 65.8097 40 65.8097ZM33.8225 28.519C36.635 28.519 38.7444 30.1261 40 32.3611C41.2305 30.1261 43.3649 28.519 46.1774 28.519C50.4715 28.519 53.6607 31.7835 53.6607 36.4291C53.6607 43.5106 45.9263 49.6378 41.356 52.601C40.9291 52.8772 40.4018 53.2037 40.0251 53.2037C39.6735 53.2037 39.0709 52.8772 38.6189 52.601C34.0234 49.6881 26.3142 43.5106 26.3142 36.4291C26.3142 31.7835 29.5033 28.519 33.8225 28.519Z" fill="#1C1C1E"/>
</g>
<defs>
<clipPath id="clip0_66_374">
<rect width="80" height="80" fill="white"/>
</clipPath>
</defs>
</svg>
