<svg width="50" height="50" viewBox="0 0 84 84" fill="none" xmlns="http://www.w3.org/2000/svg">
<g clip-path="url(#clip0_53_319)">
<path d="M26.4356 44.97L36.0748 49.3309L32.2193 57.8531C31.07 60.3936 31.1918 63.5308 31.6962 63.759C32.1827 63.9791 34.6194 61.9994 35.7687 59.4589L39.6243 50.9367L49.2635 55.2976C50.9752 56.072 52.5633 55.4882 53.2969 53.8666C55.0494 49.9929 53.7047 44.7613 49.8499 40.7601L53.1108 31.9689C56.1279 31.4889 59.0202 30.7572 60.477 29.9837C61.2668 29.5813 61.7945 29.0387 62.0553 28.4621C62.5933 27.273 62.0738 25.9744 60.7225 25.3631L41.3539 16.6005C40.0026 15.9892 38.6843 16.4563 38.1463 17.6455C37.8855 18.222 37.8263 18.9766 38.0455 19.8355C38.4264 21.4403 39.8042 24.1039 41.4176 26.6788L36.9855 34.9401C31.4172 34.6783 26.6001 37.1221 24.8476 40.9959C24.1139 42.6174 24.7239 44.1957 26.4356 44.97ZM45.2768 26.6883C45.4333 26.3902 45.4363 26.2396 45.2772 26.0156C43.3974 23.6459 42.1659 21.3306 42.0569 20.8038C42.0024 20.5404 42.2019 20.4353 42.4001 20.525L57.1022 27.1763C57.2824 27.2579 57.3352 27.4771 57.1014 27.61C56.6518 27.8842 54.0817 28.4795 51.0608 28.6322C50.7875 28.6605 50.6764 28.7622 50.5558 29.0766L47.0126 38.3478C46.0671 37.703 45.071 37.1221 43.972 36.6249C42.8729 36.1277 41.761 35.7549 40.6525 35.4704L45.2768 26.6883ZM28.6419 42.3001C28.2816 42.137 28.1911 41.8573 28.4588 41.4575C30.3503 38.4281 36.257 36.6942 42.6352 39.5798C49.0133 42.4653 51.5927 48.0383 50.566 51.4591C50.4425 51.9241 50.1726 52.0408 49.8303 51.8859L28.6419 42.3001Z" fill="#1C1C1E"/>
</g>
<defs>
<clipPath id="clip0_53_319">
<rect width="63" height="63" fill="white" transform="translate(25.9678) rotate(24.3425)"/>
</clipPath>
</defs>
</svg>
