<svg pointer-events="none" width="50" height="50" viewBox="0 0 64 64" fill="none" xmlns="http://www.w3.org/2000/svg">
<g clip-path="url(#clip0_52_313)">
<path d="M22.4174 54.875C23.5424 54.875 24.3862 54.3326 25.7522 53.1272L32.6429 47.0201H44.7969C50.8438 47.0201 54.2388 43.5647 54.2388 37.5982V22.0089C54.2388 16.0424 50.8438 12.5871 44.7969 12.5871H19.183C13.1362 12.5871 9.74107 16.0424 9.74107 22.0089V37.5982C9.74107 43.5647 13.2165 47.0201 19.0424 47.0201H19.8661V51.9821C19.8661 53.7701 20.8103 54.875 22.4174 54.875ZM23.4018 50.4554V44.7299C23.4018 43.5446 22.8996 43.0826 21.7545 43.0826H19.2835C15.4866 43.0826 13.6786 41.1741 13.6786 37.4777V22.1295C13.6786 18.433 15.4866 16.5246 19.2835 16.5246H44.6763C48.4732 16.5246 50.3013 18.433 50.3013 22.1295V37.4777C50.3013 41.1741 48.4732 43.0826 44.6763 43.0826H32.4219C31.2165 43.0826 30.6138 43.2835 29.7701 44.1674L23.4018 50.4554ZM29.2277 21.7277C29.2277 23.2746 30.4531 24.5201 32 24.5201C33.5469 24.5201 34.7924 23.2746 34.7924 21.7277C34.7924 20.1808 33.5469 18.9353 32 18.9353C30.4531 18.9353 29.2277 20.1808 29.2277 21.7277ZM29.2277 29.8036C29.2277 31.3504 30.4531 32.5759 32 32.5759C33.5469 32.5759 34.7924 31.3504 34.7924 29.8036C34.7924 28.2567 33.5469 27.0112 32 27.0112C30.4531 27.0112 29.2277 28.2567 29.2277 29.8036ZM29.2277 37.8795C29.2277 39.4063 30.4531 40.6518 32 40.6518C33.5469 40.6518 34.7924 39.4063 34.7924 37.8795C34.7924 36.3326 33.5469 35.0871 32 35.0871C30.4531 35.0871 29.2277 36.3326 29.2277 37.8795Z" fill="white"/>
</g>
<defs>
<clipPath id="clip0_52_313">
<rect width="64" height="64" fill="white"/>
</clipPath>
</defs>
</svg>
