<svg width="33" height="36" viewBox="0 0 33 36" fill="none" xmlns="http://www.w3.org/2000/svg">
<path d="M29.1287 22.6219L29.1287 22.6219L29.1348 22.6277C29.9192 23.3682 30.649 24.0577 31.1925 24.7699C31.734 25.4794 32 26.0982 32 26.6792C32 27.1166 31.8438 27.4199 31.5959 27.6295C31.3312 27.8533 30.8716 28.0432 30.1631 28.0432H2.83687C2.1284 28.0432 1.66877 27.8533 1.40408 27.6295C1.15619 27.4199 1 27.1166 1 26.6792C1 26.0982 1.26605 25.4794 1.80752 24.7699C2.35099 24.0577 3.08084 23.3682 3.86517 22.6277L3.87082 22.6224L3.87638 22.6169C4.67915 21.8351 5.10666 20.7111 5.37045 19.6195C5.63886 18.5088 5.7722 17.2743 5.88277 16.1566L5.88558 16.1282L5.88676 16.0996C6.13853 10.0299 7.92806 6.24888 11.7343 4.89325L12.1993 4.72763L12.3506 4.25774C12.9639 2.35322 14.5001 1 16.4915 1C18.5024 1 20.0343 2.35543 20.6302 4.25111L20.7797 4.7269L21.2498 4.89366C25.0713 6.24948 26.8446 10.0283 27.1134 16.1024L27.1146 16.1295L27.1172 16.1566C27.2275 17.2708 27.3565 18.5067 27.6227 19.6176C27.8845 20.7105 28.3127 21.8384 29.1287 22.6219ZM20.688 32.4071C20.0785 33.8461 18.5502 35 16.4915 35C14.4478 35 12.9211 33.847 12.3119 32.4071H20.688Z" stroke="#9C9C9C" stroke-width="2"/>
</svg>
