<svg width="33" height="37" viewBox="0 0 33 37" fill="none" xmlns="http://www.w3.org/2000/svg">
<path d="M29.1189 23.2207L29.1189 23.2207L29.1249 23.2266C29.9088 23.9872 30.6398 24.6969 31.1846 25.4306C31.7265 26.1605 32 26.806 32 27.4203C32 27.8871 31.8364 28.209 31.5856 28.427C31.3209 28.6571 30.8651 28.8499 30.1631 28.8499H2.83687C2.13492 28.8499 1.67914 28.6571 1.41436 28.427C1.1636 28.209 1 27.8871 1 27.4203C1 26.806 1.27348 26.1605 1.81544 25.4306C2.36016 24.6969 3.09116 23.9872 3.87506 23.2266L3.88063 23.2212L3.88612 23.2157C4.68443 22.4166 5.10924 21.269 5.37189 20.152C5.63937 19.0144 5.77244 17.749 5.88302 16.6L5.88569 16.5723L5.88681 16.5445C6.13927 10.289 7.93766 6.39282 11.7425 5.00004L12.2056 4.83053L12.353 4.35997C12.9732 2.38071 14.5178 1 16.4915 1C18.4846 1 20.0252 2.38287 20.6279 4.35346L20.7736 4.82982L21.2416 5.00047C25.0617 6.39345 26.8438 10.2873 27.1133 16.5472L27.1144 16.5737L27.117 16.6C27.2272 17.7456 27.356 19.0123 27.6213 20.1501C27.882 21.2684 28.3074 22.4198 29.1189 23.2207ZM20.7041 33.2795C20.1022 34.797 18.5533 36 16.4915 36C14.4448 36 12.8975 34.7979 12.2958 33.2795H20.7041Z" stroke="#C242FF" stroke-width="2"/>
</svg>
