<svg width="34" height="37" viewBox="0 0 34 37" fill="none" xmlns="http://www.w3.org/2000/svg">
<path fill-rule="evenodd" clip-rule="evenodd" d="M17.3639 0.210648C17.0028 -0.0702159 16.4972 -0.0702159 16.1361 0.210648L0.386059 12.4606C0.142473 12.6501 0 12.9414 0 13.25V32.5C0 33.6935 0.474106 34.8381 1.31802 35.682C2.16193 36.5259 3.30653 37 4.5 37H11.5H22H29C30.1935 37 31.3381 36.5259 32.182 35.682C33.0259 34.8381 33.5 33.6935 33.5 32.5V13.25C33.5 12.9414 33.3575 12.6501 33.1139 12.4606L17.3639 0.210648ZM23 35H29C29.663 35 30.2989 34.7366 30.7678 34.2678C31.2366 33.7989 31.5 33.163 31.5 32.5V13.7391L16.75 2.26686L2 13.7391V32.5C2 33.163 2.26339 33.7989 2.73223 34.2678C3.20107 34.7366 3.83696 35 4.5 35H10.5V18.5C10.5 17.9477 10.9477 17.5 11.5 17.5H22C22.5523 17.5 23 17.9477 23 18.5V35ZM12.5 35V19.5H21V35H12.5Z" fill="#C242FF"/>
</svg>
