<svg width="34" height="27" viewBox="0 0 34 27" fill="none" xmlns="http://www.w3.org/2000/svg">
<path d="M2.33575 5.06473C3.63522 5.06473 4.6715 3.94122 4.6715 2.53236C4.6715 1.14135 3.63522 0 2.33575 0C1.05273 0 0 1.14135 0 2.53236C0 3.94122 1.05273 5.06473 2.33575 5.06473ZM10.0668 4.24439H32.4044C33.2927 4.24439 34 3.49538 34 2.53236C34 1.56935 33.3091 0.820343 32.4044 0.820343H10.0668C9.19497 0.820343 8.48766 1.56935 8.48766 2.53236C8.48766 3.49538 9.17852 4.24439 10.0668 4.24439ZM2.33575 16.0324C3.63522 16.0324 4.6715 14.9089 4.6715 13.5C4.6715 12.109 3.63522 10.9676 2.33575 10.9676C1.05273 10.9676 0 12.109 0 13.5C0 14.9089 1.05273 16.0324 2.33575 16.0324ZM10.0668 15.212H32.4044C33.2927 15.212 34 14.463 34 13.5C34 12.537 33.3091 11.788 32.4044 11.788H10.0668C9.19497 11.788 8.48766 12.537 8.48766 13.5C8.48766 14.463 9.17852 15.212 10.0668 15.212ZM2.33575 27C3.63522 27 4.6715 25.8765 4.6715 24.4676C4.6715 23.0766 3.63522 21.9353 2.33575 21.9353C1.05273 21.9353 0 23.0766 0 24.4676C0 25.8765 1.05273 27 2.33575 27ZM10.0668 26.1797H32.4044C33.2927 26.1797 34 25.4306 34 24.4676C34 23.5046 33.3091 22.7556 32.4044 22.7556H10.0668C9.19497 22.7556 8.48766 23.5046 8.48766 24.4676C8.48766 25.4306 9.17852 26.1797 10.0668 26.1797Z" fill="#C242FF"/>
</svg>
