<svg width="28" height="32" viewBox="0 0 28 32" fill="none" xmlns="http://www.w3.org/2000/svg">
<path fill-rule="evenodd" clip-rule="evenodd" d="M8.5 7.5C8.5 4.46243 10.9624 2 14 2C17.0376 2 19.5 4.46243 19.5 7.5C19.5 10.5376 17.0376 13 14 13C10.9624 13 8.5 10.5376 8.5 7.5ZM14 0C9.85786 0 6.5 3.35786 6.5 7.5C6.5 11.6421 9.85786 15 14 15C18.1421 15 21.5 11.6421 21.5 7.5C21.5 3.35786 18.1421 0 14 0ZM7.5 19.5C5.51088 19.5 3.60322 20.2902 2.1967 21.6967C0.790176 23.1032 0 25.0109 0 27V30.25C0 30.8023 0.447715 31.25 1 31.25C1.55228 31.25 2 30.8023 2 30.25V27C2 25.5413 2.57946 24.1424 3.61091 23.1109C4.64236 22.0795 6.04131 21.5 7.5 21.5H20.5C21.9587 21.5 23.3576 22.0795 24.3891 23.1109C25.4205 24.1424 26 25.5413 26 27V30.25C26 30.8023 26.4477 31.25 27 31.25C27.5523 31.25 28 30.8023 28 30.25V27C28 25.0109 27.2098 23.1032 25.8033 21.6967C24.3968 20.2902 22.4891 19.5 20.5 19.5H7.5Z" fill="#C242FF"/>
</svg>
