<svg width="30" height="30" viewBox="0 0 40 34" fill="none" xmlns="http://www.w3.org/2000/svg">
<path d="M38.4389 7.17172L24.0501 0.948455C22.5037 0.280184 21.2371 -0.0261063 20 0.00173828C18.7629 -0.0261063 17.4963 0.280184 15.9499 0.948455L1.56112 7.17172C0.530191 7.60332 0 8.41081 0 9.23222C0 10.0676 0.530191 10.8611 1.56112 11.2927L4.60507 12.5939C6.29902 13.318 8.21748 13.3069 9.90286 12.563L16.548 9.63022C16.6916 9.56682 16.7305 9.38925 16.7305 9.23222C16.7305 8.2159 18.3652 7.49194 20.0442 7.49194C21.7379 7.49194 23.3579 8.2159 23.3579 9.23222C23.3579 10.2764 21.7379 11.0143 20.0442 11.0143C19.9833 11.0143 19.9223 11.0133 19.8612 11.0114C18.9878 10.9837 18.0885 10.9989 17.2889 11.3513L15.9326 11.9493C13.5019 13.0208 13.5126 16.4734 15.9499 17.5299C17.4963 18.1982 18.7629 18.4906 20 18.4766C21.2371 18.4906 22.5037 18.1982 24.0501 17.5299L38.4389 11.2927C39.4698 10.8472 40 10.0676 40 9.23222C40 8.41081 39.4698 7.60332 38.4389 7.17172ZM14.9035 19.3177C12.3481 18.2156 9.49926 20.0894 9.49926 22.8724C9.49926 24.2683 10.2407 25.5874 11.5469 26.0796C13.8648 26.9532 16.7422 27.4565 20 27.4565C28.6451 27.4565 34.5803 23.9342 34.5803 19.5904C34.5803 17.5187 32.4575 16.1254 30.5567 16.9496L24.9485 19.3816C23.1664 20.1473 21.5464 20.5371 20 20.5232C18.4683 20.5371 16.8336 20.1473 15.0515 19.3816L14.9035 19.3177ZM6.74664 15.7925C6.11948 15.5214 5.41973 15.9812 5.41973 16.6644V19.5904C5.41973 21.2187 7.31959 20.6723 7.31959 19.044V16.6644C7.31959 16.2855 7.09442 15.9429 6.74664 15.7925ZM6.02356 28.4311V32.037C6.02356 33.2204 6.84831 34 8.10015 34H8.7187C9.97054 34 10.7806 33.2204 10.7806 32.037V28.4311C10.7806 27.8208 10.5662 27.3211 10.1892 26.9768C9.83564 26.6538 9.49926 26.2563 9.49926 25.7774V25.6472C9.49926 25.3284 9.30161 25.0215 9.03234 24.8507C8.35316 24.4197 7.31959 24.8971 7.31959 25.7015V25.8771C7.31959 26.2951 7.02789 26.6436 6.70212 26.9055C6.27407 27.2497 6.02356 27.7812 6.02356 28.4311Z" fill="#757575"/>
</svg>
