<svg width="40" height="40" viewBox="0 0 31 28" fill="none" xmlns="http://www.w3.org/2000/svg">
<path fill-rule="evenodd" clip-rule="evenodd" d="M16.4526 0.78259L15.5002 0L14.5479 0.782598L0.5477 12.2875C-0.0923411 12.8134 -0.184818 13.7587 0.341146 14.3987C0.867111 15.0388 1.81235 15.1312 2.45239 14.6053L15.5002 3.88299L28.5477 14.6048C29.1878 15.1308 30.133 15.0383 30.6589 14.3982C31.1849 13.7582 31.0924 12.8129 30.4524 12.287L27.5 9.86086V2.94631C27.5 2.39402 27.0523 1.94631 26.5 1.94631H23.5C22.9477 1.94631 22.5 2.39402 22.5 2.94631V5.75209L16.4526 0.78259Z" fill="#7E7E7E"/>
<path fill-rule="evenodd" clip-rule="evenodd" d="M15.5 5.94531L5 14.2986H26L15.5 5.94531ZM26 14.2989V25.9997C26 27.1043 25.1046 27.9997 24 27.9997H7C5.89543 27.9997 5 27.1043 5 25.9997V14.2989H26ZM13 14.9995C12.4477 14.9995 12 15.4472 12 15.9995V23.9995C12 24.5518 12.4477 24.9995 13 24.9995H18C18.5523 24.9995 19 24.5518 19 23.9995V15.9995C19 15.4472 18.5523 14.9995 18 14.9995H13Z" fill="#7E7E7E"/>
</svg>
