<svg width="40" height="48" viewBox="0 0 53 48" fill="none" xmlns="http://www.w3.org/2000/svg">
<g clip-path="url(#clip0_294_628)">
<path d="M6.55041 19.7464C6.55041 20.6623 7.23735 21.4373 8.36464 21.4373C8.91067 21.4373 9.38624 21.1379 9.80898 20.7856L27.3172 6.11323C27.7928 5.69049 28.3388 5.69049 28.8144 6.11323L46.3049 20.7856C46.7277 21.1379 47.2033 21.4373 47.7493 21.4373C48.7709 21.4373 49.5459 20.8032 49.5459 19.7992C49.5459 19.2003 49.3169 18.7248 48.859 18.3549L43.9095 14.1804V6.90585C43.9095 6.11323 43.3987 5.60242 42.6236 5.60242H40.2458C39.4531 5.60242 38.9247 6.11323 38.9247 6.90585V10.0059L30.5405 2.94273C29.0257 1.67453 27.1234 1.67453 25.591 2.94273L7.23735 18.3549C6.77939 18.7424 6.55041 19.2532 6.55041 19.7464ZM12.2573 35.5813C12.2573 38.1177 13.8426 39.6325 16.4318 39.6325H39.6645C42.2714 39.6325 43.8566 38.1177 43.8566 35.5813V22.1595L29.1314 9.81214C28.4621 9.23088 27.6342 9.2485 26.9649 9.81214L12.2573 22.1419V35.5813ZM32.6542 36.0744H23.4245V24.7487C23.4245 23.9209 23.9705 23.3924 24.7984 23.3924H31.2979C32.1258 23.3924 32.6542 23.9209 32.6542 24.7487V36.0744Z" fill="#757575"/>
</g>
<defs>
<clipPath id="clip0_294_628">
<rect width="53" height="48" rx="23" fill="white"/>
</clipPath>
</defs>
</svg>
