<svg width="40" height="37" viewBox="0 0 40 37" fill="none" xmlns="http://www.w3.org/2000/svg">
<path fill-rule="evenodd" clip-rule="evenodd" d="M19.9481 29.0754C19.9481 29.0754 28.7665 17.6589 29.4467 11.7726C30.1269 5.8863 26.7099 0 19.9481 0C13.1863 0 9.83694 5.25485 10.4016 11.7726C11.0816 19.621 19.9481 29.0754 19.9481 29.0754ZM19.8628 13.0808C22.1167 13.0808 23.9439 11.3239 23.9439 9.15657C23.9439 6.9893 22.1167 5.23237 19.8628 5.23237C17.6089 5.23237 15.7817 6.9893 15.7817 9.15657C15.7817 11.3239 17.6089 13.0808 19.8628 13.0808Z" fill="#757575"/>
<path fill-rule="evenodd" clip-rule="evenodd" d="M25.3439 24C22.7575 28.2369 20.0765 31.7654 20.0765 31.7654C20.0765 31.7654 17.0146 28.4462 14.27 24.0361C6.01667 24.8368 0 27.3227 0 30.2654C0 33.8552 8.9543 36.7654 20 36.7654C31.0457 36.7654 40 33.8552 40 30.2654C40 27.277 33.795 24.7597 25.3439 24Z" fill="#757575"/>
</svg>
