<svg width="29" height="31" viewBox="0 0 29 31" fill="none" xmlns="http://www.w3.org/2000/svg">
<path d="M27.8682 7.09362L17.4363 1.6025C16.3152 1.01285 15.3969 0.74259 14.5 0.767159C13.6031 0.74259 12.6848 1.01285 11.5637 1.6025L1.13181 7.09362C0.384389 7.47443 0 8.18693 0 8.91171C0 9.64877 0.384389 10.349 1.13181 10.7298L2.80005 11.5977C4.3416 12.3997 6.17997 12.3876 7.7108 11.5653L11.9678 9.27871C12.0937 9.21109 12.1296 9.0546 12.1296 8.91171C12.1296 8.01495 13.3148 7.37616 14.532 7.37616C15.7599 7.37616 16.9345 8.01495 16.9345 8.91171C16.9345 9.83303 15.7599 10.4841 14.532 10.4841C13.8188 10.4841 13.0734 10.4924 12.4449 10.8296L11.5465 11.3116C9.57921 12.3671 9.5891 15.1915 11.5637 16.2332C12.6848 16.8228 13.6031 17.0808 14.5 17.0685C15.3969 17.0808 16.3152 16.8228 17.4363 16.2332L27.8682 10.7298C28.6156 10.3367 29 9.64877 29 8.91171C29 8.18693 28.6156 7.47443 27.8682 7.09362ZM10.9124 17.867C9.08246 16.9065 6.88697 18.2337 6.88697 20.3003V22.9405C8.74485 24.2181 11.3822 24.992 14.5 24.992C20.7677 24.992 25.0707 21.884 25.0707 18.0513C25.0707 16.2944 23.2023 15.1678 21.6485 15.9878L18.0876 17.867C16.7957 18.5427 15.6211 18.8866 14.5 18.8743C13.3895 18.8866 12.2043 18.5427 10.9124 17.867ZM4.93871 14.7251C4.4801 14.4838 3.92931 14.8164 3.92931 15.3346V18.0513C3.92931 19.12 4.42047 20.3853 5.3067 21.4663V15.3346C5.3067 15.0789 5.16501 14.8442 4.93871 14.7251ZM4.36708 25.8519V29.0335C4.36708 30.0777 4.96502 30.7656 5.87261 30.7656H6.32106C7.22865 30.7656 7.81591 30.0777 7.81591 29.0335V25.8519C7.81591 25.5901 7.77919 25.3515 7.71006 25.1404C7.46976 24.4065 6.88697 23.7127 6.88697 22.9405C6.26767 22.5105 5.7338 22.0191 5.3067 21.4663V22.2106C5.3067 23.4198 4.36708 24.6427 4.36708 25.8519Z" fill="#757575"/>
</svg>
