<svg width="30" height="27" viewBox="0 0 30 27" fill="none" xmlns="http://www.w3.org/2000/svg">
<path fill-rule="evenodd" clip-rule="evenodd" d="M14.5218 21.1671C14.5218 21.1671 20.9417 12.8558 21.4369 8.57052C21.932 4.28526 19.4445 0 14.5219 0C9.59925 0 7.16087 3.82556 7.57196 8.57052C8.06698 14.2842 14.5218 21.1671 14.5218 21.1671ZM14.4597 9.52291C16.1006 9.52291 17.4308 8.24386 17.4308 6.66607C17.4308 5.08828 16.1006 3.80923 14.4597 3.80923C12.8189 3.80923 11.4887 5.08828 11.4887 6.66607C11.4887 8.24386 12.8189 9.52291 14.4597 9.52291Z" fill="#757575"/>
<path fill-rule="evenodd" clip-rule="evenodd" d="M18.4505 17.4722C16.5676 20.5567 14.6158 23.1254 14.6158 23.1254C14.6158 23.1254 12.3867 20.7091 10.3886 17.4984C4.38016 18.0814 0 19.8911 0 22.0334C0 24.6468 6.51878 26.7654 14.5601 26.7654C22.6014 26.7654 29.1202 24.6468 29.1202 22.0334C29.1202 19.8579 24.6029 18.0252 18.4505 17.4722Z" fill="#757575"/>
</svg>
