<svg width="28" height="30" viewBox="0 0 28 30" fill="none" xmlns="http://www.w3.org/2000/svg">
<path fill-rule="evenodd" clip-rule="evenodd" d="M14 28C21.1797 28 27 22.1797 27 15C27 7.8203 21.1797 2 14 2C6.8203 2 1 7.8203 1 15C1 22.1797 6.8203 28 14 28Z" fill="#4CD964"/>
<path fill-rule="evenodd" clip-rule="evenodd" d="M15 14V8C15 7.44772 14.5523 7 14 7C13.4477 7 13 7.44772 13 8V14H7C6.44772 14 6 14.4477 6 15C6 15.5523 6.44772 16 7 16H13V22C13 22.5523 13.4477 23 14 23C14.5523 23 15 22.5523 15 22V16H21C21.5523 16 22 15.5523 22 15C22 14.4477 21.5523 14 21 14H15Z" fill="white"/>
</svg>
